<svg viewBox="0 0 512 512" width="512" height="512" xmlns="http://www.w3.org/2000/svg">
  <rect width="512" height="512" rx="128" fill="#121212"/>
  <defs>
    <linearGradient id="turkuazGrad" x1="0%" y1="0%" x2="100%" y2="100%">
      <stop offset="0%" stop-color="#2dd4bf"/>
      <stop offset="100%" stop-color="#0f766e"/>
    </linearGradient>
  </defs>
  <g fill="none" stroke="url(#turkuazGrad)" stroke-width="24" stroke-linecap="round" stroke-linejoin="round">
    <path d="M140 180 H340 A32 32 0 0 1 372 212 V300 A32 32 0 0 1 340 332 H140 A32 32 0 0 1 108 300 V212 A32 32 0 0 1 140 180 Z"/>
    <path d="M300 236 H360 A20 20 0 0 1 380 256 V256 A20 20 0 0 1 360 276 H300 Z"/>
    <circle cx="340" cy="256" r="6" fill="url(#turkuazGrad)"/>
    <line x1="160" y1="140" x2="160" y2="372"/>
    <line x1="130" y1="220" x2="200" y2="200"/>
    <line x1="130" y1="260" x2="200" y2="240"/>
  </g>
</svg>
