<?xml version="1.0" encoding="UTF-8" standalone="no"?>
<svg
   viewBox="0 0 512 512"
   width="512"
   height="512"
   version="1.1"
   id="svg5"
   sodipodi:docname="gemini-svg.svg"
   inkscape:export-filename="cuzdan"
   inkscape:export-xdpi="96"
   inkscape:export-ydpi="96"
   inkscape:version="1.4.4 (dcaf3e7d9e, 2026-05-05)"
   xmlns:inkscape="http://www.inkscape.org/namespaces/inkscape"
   xmlns:sodipodi="http://sodipodi.sourceforge.net/DTD/sodipodi-0.dtd"
   xmlns="http://www.w3.org/2000/svg"
   xmlns:svg="http://www.w3.org/2000/svg">
  <sodipodi:namedview
     id="namedview5"
     pagecolor="#ffffff"
     bordercolor="#000000"
     borderopacity="0.25"
     inkscape:showpageshadow="2"
     inkscape:pageopacity="0.0"
     inkscape:pagecheckerboard="0"
     inkscape:deskcolor="#d1d1d1"
     showgrid="false"
     inkscape:zoom="1.6191406"
     inkscape:cx="256"
     inkscape:cy="256"
     inkscape:window-width="1920"
     inkscape:window-height="1031"
     inkscape:window-x="0"
     inkscape:window-y="0"
     inkscape:window-maximized="1"
     inkscape:current-layer="svg5" />
  <rect
     width="512"
     height="512"
     rx="128"
     fill="#121212"
     id="rect1" />
  <defs
     id="defs2">
    <linearGradient
       id="turkuazGrad"
       x1="0%"
       y1="0%"
       x2="100%"
       y2="100%">
      <stop
         offset="0%"
         stop-color="#2dd4bf"
         id="stop1" />
      <stop
         offset="100%"
         stop-color="#0f766e"
         id="stop2" />
    </linearGradient>
  </defs>
  <g
     fill="none"
     stroke="url(#turkuazGrad)"
     stroke-width="24"
     stroke-linecap="round"
     stroke-linejoin="round"
     id="g5">
    <path
       d="M140 180 H340 A32 32 0 0 1 372 212 V300 A32 32 0 0 1 340 332 H140 A32 32 0 0 1 108 300 V212 A32 32 0 0 1 140 180 Z"
       id="path2" />
    <path
       d="M300 236 H360 A20 20 0 0 1 380 256 V256 A20 20 0 0 1 360 276 H300 Z"
       id="path3" />
    <circle
       cx="340"
       cy="256"
       r="6"
       fill="url(#turkuazGrad)"
       id="circle3" />
    <line
       x1="160"
       y1="140"
       x2="160"
       y2="372"
       id="line3" />
    <line
       x1="130"
       y1="220"
       x2="200"
       y2="200"
       id="line4" />
    <line
       x1="130"
       y1="260"
       x2="200"
       y2="240"
       id="line5" />
  </g>
</svg>
